# xmcd CD database file
#
# Track frame offsets:
#	150
#	8765
#	20942
#	35142
#	46575
#	58202
#	71282
#	85772
#	89382
#	101980
#	115827
#	133405
#	137162
#	146280
#	159360
#	174345
#	189167
#	199615
#
# Disc length: 3169 seconds
#
# Revision: 0
# Processed by: cddbd v1.5.1PL2 Copyright (c) Steve Scherf et al.
# Submitted via: CDex 1.51
#
DISCID=f50c5f12
DTITLE=Brisa Roché - The chase
DYEAR=2005
DGENRE=Jazz
TTITLE0=Airplane
TTITLE1=Mystery man
TTITLE2=Dans le vert de ses yeux
TTITLE3=Billionnaire
TTITLE4=Dial me up
TTITLE5=Warned
TTITLE6=Little robot
TTITLE7=Intermission 1
TTITLE8=Torchlight
TTITLE9=A luxury
TTITLE10=Baby shut your eyes
TTITLE11=Intermission 2
TTITLE12=Coco
TTITLE13=Flying too high
TTITLE14=Sugarfight
TTITLE15=At the shore
TTITLE16=Helmet ray
TTITLE17=Now that it's long over
EXTD=YEAR: 2005
EXTT0=
EXTT1=
EXTT2=
EXTT3=
EXTT4=
EXTT5=
EXTT6=
EXTT7=
EXTT8=
EXTT9=
EXTT10=
EXTT11=
EXTT12=
EXTT13=
EXTT14=
EXTT15=
EXTT16=
EXTT17=
PLAYORDER=
